<svg id="visual" viewBox="0 0 900 600" width="900" height="600" xmlns="http://www.w3.org/2000/svg" xmlns:xlink="http://www.w3.org/1999/xlink" version="1.1"><rect x="0" y="0" width="900" height="600" fill="#002233"></rect><path d="M0 390L12.5 399C25 408 50 426 75 440.7C100 455.3 125 466.7 150 467C175 467.3 200 456.7 225 441.2C250 425.7 275 405.3 300 416.2C325 427 350 469 375 477.3C400 485.7 425 460.3 450 454C475 447.7 500 460.3 525 456.7C550 453 575 433 600 437.3C625 441.7 650 470.3 675 483.2C700 496 725 493 750 475C775 457 800 424 825 407.2C850 390.3 875 389.7 887.5 389.3L900 389L900 601L887.5 601C875 601 850 601 825 601C800 601 775 601 750 601C725 601 700 601 675 601C650 601 625 601 600 601C575 601 550 601 525 601C500 601 475 601 450 601C425 601 400 601 375 601C350 601 325 601 300 601C275 601 250 601 225 601C200 601 175 601 150 601C125 601 100 601 75 601C50 601 25 601 12.5 601L0 601Z" fill="#CCCCCC" stroke-linecap="round" stroke-linejoin="miter"></path></svg>